<svg xmlns="http://www.w3.org/2000/svg" data-name="Layer 1" viewBox="0 0 100 100" x="0px" y="0px" preserveAspectRatio="none" width="100%" height="100%" class="" fill="rgba(255, 255, 255, 1.0)"><title>Artboard 26</title><path d="M98.85,61.58a4.85,4.85,0,0,1-3.52,5.89L40.13,81.36A9.78,9.78,0,1,1,29.35,76.9c.31-.08.63-.14.94-.19L17.06,24.11,2.78,12.44A4.85,4.85,0,1,1,8.92,4.93L24.44,17.62a4.85,4.85,0,0,1,1.63,2.57L39,71.64,93,58.06A4.85,4.85,0,0,1,98.85,61.58Zm-65.08-40a3.57,3.57,0,0,1,2.59-4.33l8.46-2.13,6.26-1.57L60,11.33l6.66-1.67,7.68-1.93a3.57,3.57,0,0,1,4.33,2.59l9.55,37.94a3.57,3.57,0,0,1-2.59,4.33L47.65,62.13a3.57,3.57,0,0,1-4.33-2.59ZM50.89,31.77c1,3.85,4.37,5.11,9,5.47,3.19.25,4.7.89,5.08,2.4s-.93,2.85-3.19,3.42a13.79,13.79,0,0,1-4.48.34,2.43,2.43,0,0,0-.8.06,2.32,2.32,0,0,0-1.77,2.23v.2a2.37,2.37,0,0,0,2.22,2.38,18.93,18.93,0,0,0,5-.35l.46,1.83a2,2,0,1,0,3.89-1l-.53-2.11c4.37-1.94,6.11-5.59,5.22-9.13s-3.36-5.28-8.51-5.76c-3.7-.42-5.3-.91-5.63-2.22-.28-1.11.27-2.44,2.86-3.08a12.59,12.59,0,0,1,3.64-.38A2.29,2.29,0,0,0,64,26a2.37,2.37,0,0,0-.55-4.67,17.49,17.49,0,0,0-3.76.39l-.39-1.55a2,2,0,0,0-3.89,1L55.82,23C51.78,24.91,50,28.27,50.89,31.77Z"></path></svg>